# xmcd
#
# Track frame offsets: 
#        150
#        9092
#        17635
#        27097
#        39042
#        51615
#        61862
#        73632
#        84510
#        94465
#        108480
#        120410
#        132825
#        142697
#        155030
#
# Disc length: 2248 seconds
#
# Revision: 4
# Processed by: cddbd v1.5.2PL0 Copyright (c) Steve Scherf et al.
# Submitted via: ExactAudioCopy v0.99pb5
#
DISCID=b808c60f
DTITLE=Various Artist - Classic Country Vol. 16 The Fifties Legends Disc 2
DYEAR=1999
DGENRE=Country
TTITLE0=Elvis Presley - All Shook Up
TTITLE1=Jerry Lee Lewis - Great Balls Of Fire
TTITLE2=Ricky Nelson - Believe What You Say
TTITLE3=Don Gibson - Give Myself A Party
TTITLE4=Hank Snow - Yellow Roses
TTITLE5=Skeeter Davis - Set Him Free
TTITLE6=Hank Locklin - It's A Little More Like Heaven
TTITLE7=Everly Brothers - Devoted To You
TTITLE8=Eddy Arnold - I Wanna Play House With You
TTITLE9=Lefty Frizzell - Always Late (With Your Kisses)
TTITLE10=Hank Williams - Long Gone Lonesome Blues
TTITLE11=Ray Price - The Same Old Me
TTITLE12=Marty Robbins - Knee Deep In The Blues
TTITLE13=Faron Young - Sweet Dreams
TTITLE14=Red Foley And Ernest Tubb - Goodnight Irene
EXTD=
EXTT0=
EXTT1=
EXTT2=
EXTT3=
EXTT4=
EXTT5=
EXTT6=
EXTT7=
EXTT8=
EXTT9=
EXTT10=
EXTT11=
EXTT12=
EXTT13=
EXTT14=
PLAYORDER=
